<svg xmlns="http://www.w3.org/2000/svg" viewBox="0 0 266.69 87.61"><defs><style>.cls-1{fill:#fff;}</style></defs><g id="Layer_2" data-name="Layer 2"><g id="Layer_1-2" data-name="Layer 1"><path class="cls-1" d="M36.33,17,24.94,35.25l-2.12-3.39A25.63,25.63,0,0,0,1.56,19.77H1.48A1.5,1.5,0,0,1,0,18.27V1.61A1.49,1.49,0,0,1,1.51.11h.38a45.56,45.56,0,0,1,32.81,15C35.26,15.68,35.8,16.32,36.33,17Z"/><polygon class="cls-1" points="53.47 43.8 41.88 62.35 30.27 43.8 41.88 25.24 53.47 43.8"/><path class="cls-1" d="M82.82,67.85l1.19,0a1.49,1.49,0,0,1,1.58,1.49V86a1.49,1.49,0,0,1-1.44,1.49l-1.28,0a45.58,45.58,0,0,1-33.81-15c-.56-.63-1.1-1.27-1.65-1.94L58.82,52.36l2.12,3.39A25.65,25.65,0,0,0,82.82,67.85Z"/><path class="cls-1" d="M82.87.1l1.28,0a1.51,1.51,0,0,1,1.44,1.5V18.3A1.49,1.49,0,0,1,84,19.79l-1.19,0a25.65,25.65,0,0,0-21.88,12.1L53.47,43.8,41.88,62.35l-2.39,3.83a45.63,45.63,0,0,1-4.79,6.36,45.57,45.57,0,0,1-33.18,15h0A1.49,1.49,0,0,1,0,86V69.33a1.49,1.49,0,0,1,1.49-1.49h.29a25.61,25.61,0,0,0,21-12.08l7.47-12L41.88,25.24l2.38-3.81a44,44,0,0,1,4.8-6.36A45.52,45.52,0,0,1,82.87.1Z"/><path class="cls-1" d="M112.35,38.55h-7V25.7h7V22.57c0-15.19,8.6-22.23,26-21.79V14c-7.6-.22-10.17,2.23-10.17,9.16V25.7h10.84V38.55H128.22V87.61H112.35Z"/><path class="cls-1" d="M148.07,9.16c0-5.14,4-9.16,9.61-9.16s9.61,4,9.61,9.16-4.13,9.17-9.61,9.17S148.07,14.3,148.07,9.16Zm1.68,16.54h15.64V87.61H149.75Z"/><path class="cls-1" d="M221.13,53.41c0-9.94-5.48-15.3-13.75-15.3-8.49,0-14,5.36-14,15.3v34.2H177.77V25.7h15.64v7.71c4-5.25,10.73-8.6,18.66-8.6,14.42,0,24.7,9.38,24.7,26.48V87.61H221.13Z"/><path class="cls-1" d="M247.47,9.16c0-5.14,4-9.16,9.61-9.16s9.61,4,9.61,9.16-4.14,9.17-9.61,9.17S247.47,14.3,247.47,9.16Zm1.67,16.54h15.65V87.61H249.14Z"/></g></g></svg>