<svg xmlns="http://www.w3.org/2000/svg" id="Layer_1" data-name="Layer 1" viewBox="516.63 406.2 266.71 87.6"><defs><style>.cls-1{fill:#1d84ff;}</style></defs><path class="cls-1" d="M553,423.18,541.6,441.45l-2.13-3.39A25.58,25.58,0,0,0,518.22,426h-.08a1.49,1.49,0,0,1-1.48-1.49V407.8a1.5,1.5,0,0,1,1.51-1.5h.38a45.51,45.51,0,0,1,32.8,14.95C551.92,421.88,552.46,422.51,553,423.18Z"/><polygon class="cls-1" points="570.13 449.99 558.53 468.55 546.93 449.99 558.53 431.44 570.13 449.99"/><path class="cls-1" d="M599.47,474c.4,0,.79,0,1.19,0a1.5,1.5,0,0,1,1.59,1.49v16.68a1.5,1.5,0,0,1-1.45,1.5l-1.27,0a45.59,45.59,0,0,1-33.81-15c-.56-.64-1.11-1.27-1.65-1.94l11.41-18.25,2.12,3.39A25.62,25.62,0,0,0,599.47,474Z"/><path class="cls-1" d="M599.53,406.3l1.27,0a1.5,1.5,0,0,1,1.45,1.5V424.5a1.5,1.5,0,0,1-1.59,1.49c-.39,0-.79,0-1.19,0a25.62,25.62,0,0,0-21.87,12.1L570.13,450l-11.59,18.56-2.4,3.82a45.22,45.22,0,0,1-38,21.33h0a1.5,1.5,0,0,1-1.51-1.5V475.53a1.5,1.5,0,0,1,1.48-1.5h.3a25.59,25.59,0,0,0,21-12.09L546.93,450l11.61-18.55,2.37-3.81a44.88,44.88,0,0,1,4.81-6.37A45.55,45.55,0,0,1,599.53,406.3Z"/><path class="cls-1" d="M629,444.75h-7V431.9h7v-3.13c0-15.2,8.6-22.24,26-21.79v13.18c-7.6-.22-10.17,2.24-10.17,9.17v2.57h10.84v12.85H644.87V493.8H629Z"/><path class="cls-1" d="M664.73,415.36c0-5.14,4-9.16,9.61-9.16s9.61,4,9.61,9.16-4.13,9.16-9.61,9.16S664.73,420.5,664.73,415.36Zm1.68,16.54h15.64v61.9H666.41Z"/><path class="cls-1" d="M737.78,459.61c0-9.95-5.47-15.31-13.74-15.31-8.5,0-14,5.36-14,15.31V493.8H694.42V431.9h15.65v7.71c4-5.25,10.73-8.61,18.66-8.61,14.42,0,24.7,9.39,24.7,26.49V493.8H737.78Z"/><path class="cls-1" d="M764.12,415.36c0-5.14,4-9.16,9.61-9.16s9.61,4,9.61,9.16-4.13,9.16-9.61,9.16S764.12,420.5,764.12,415.36Zm1.68,16.54h15.64v61.9H765.8Z"/></svg>